# Blender 4.1.1
# www.blender.org
mtllib common_cube.mtl
o Cube
v 0.918780 0.918780 -1.000000
v 0.918780 1.000000 -0.918780
v 1.000000 0.918780 -0.918780
v 0.918780 0.959336 -0.989149
v 0.959337 0.918780 -0.989149
v 0.957620 0.957620 -0.978609
v 0.959337 0.989149 -0.918780
v 0.918780 0.989149 -0.959337
v 0.957620 0.978609 -0.957620
v 0.989149 0.918780 -0.959337
v 0.989149 0.959336 -0.918780
v 0.978609 0.957620 -0.957620
v 1.000000 -0.918780 -0.918780
v 0.918780 -1.000000 -0.918780
v 0.918780 -0.918780 -1.000000
v 0.989149 -0.959337 -0.918780
v 0.989149 -0.918780 -0.959336
v 0.978609 -0.957620 -0.957620
v 0.918780 -0.989149 -0.959336
v 0.959337 -0.989149 -0.918780
v 0.957620 -0.978609 -0.957620
v 0.959337 -0.918780 -0.989149
v 0.918780 -0.959337 -0.989149
v 0.957620 -0.957620 -0.978609
v 0.918780 1.000000 0.918780
v 0.918780 0.918780 1.000000
v 1.000000 0.918780 0.918780
v 0.918780 0.989149 0.959336
v 0.959337 0.989149 0.918780
v 0.957620 0.978609 0.957620
v 0.959337 0.918780 0.989149
v 0.918780 0.959337 0.989149
v 0.957620 0.957620 0.978609
v 0.989149 0.959337 0.918780
v 0.989149 0.918780 0.959336
v 0.978609 0.957620 0.957620
v 1.000000 -0.918780 0.918780
v 0.918780 -0.918780 1.000000
v 0.918780 -1.000000 0.918780
v 0.989149 -0.918780 0.959337
v 0.989149 -0.959336 0.918780
v 0.978609 -0.957620 0.957620
v 0.918780 -0.959336 0.989149
v 0.959337 -0.918780 0.989149
v 0.957620 -0.957620 0.978609
v 0.959337 -0.989149 0.918780
v 0.918780 -0.989149 0.959337
v 0.957620 -0.978609 0.957620
v -0.918780 1.000000 -0.918780
v -0.918780 0.918780 -1.000000
v -1.000000 0.918780 -0.918780
v -0.918780 0.989149 -0.959337
v -0.959337 0.989149 -0.918780
v -0.957620 0.978609 -0.957620
v -0.959337 0.918780 -0.989149
v -0.918780 0.959336 -0.989149
v -0.957620 0.957620 -0.978609
v -0.989149 0.959336 -0.918780
v -0.989149 0.918780 -0.959337
v -0.978609 0.957620 -0.957620
v -1.000000 -0.918780 -0.918780
v -0.918780 -0.918780 -1.000000
v -0.918780 -1.000000 -0.918780
v -0.989149 -0.918780 -0.959336
v -0.989149 -0.959337 -0.918780
v -0.978609 -0.957620 -0.957620
v -0.918780 -0.959337 -0.989149
v -0.959337 -0.918780 -0.989149
v -0.957620 -0.957620 -0.978609
v -0.959337 -0.989149 -0.918780
v -0.918780 -0.989149 -0.959336
v -0.957620 -0.978609 -0.957620
v -1.000000 0.918780 0.918780
v -0.918780 0.918780 1.000000
v -0.918780 1.000000 0.918780
v -0.989149 0.918780 0.959336
v -0.989149 0.959337 0.918780
v -0.978609 0.957620 0.957620
v -0.918780 0.959337 0.989149
v -0.959337 0.918780 0.989149
v -0.957620 0.957620 0.978609
v -0.959337 0.989149 0.918780
v -0.918780 0.989149 0.959336
v -0.957620 0.978609 0.957620
v -0.918780 -0.918780 1.000000
v -1.000000 -0.918780 0.918780
v -0.918780 -1.000000 0.918780
v -0.959337 -0.918780 0.989149
v -0.918780 -0.959336 0.989149
v -0.957620 -0.957620 0.978609
v -0.989149 -0.959336 0.918780
v -0.989149 -0.918780 0.959337
v -0.978609 -0.957620 0.957620
v -0.918780 -0.989149 0.959337
v -0.959337 -0.989149 0.918780
v -0.957620 -0.978609 0.957620
vn -0.0000 -1.0000 -0.0000
vn -1.0000 -0.0000 -0.0000
vn -0.0000 -0.0000 1.0000
vn -0.0000 1.0000 -0.0000
vn 1.0000 -0.0000 -0.0000
vn -0.0000 -0.0000 -1.0000
vn -0.0000 0.5003 -0.8658
vn 0.4179 0.4178 -0.8067
vn 0.5003 -0.0000 -0.8658
vn -0.0000 0.8658 -0.5003
vn 0.4179 0.8067 -0.4178
vn 0.5003 0.8658 -0.0000
vn 0.8658 0.5003 -0.0000
vn 0.8067 0.4178 -0.4179
vn 0.8658 -0.0000 -0.5003
vn 0.8658 -0.5003 -0.0000
vn 0.8067 -0.4179 -0.4179
vn 0.5003 -0.8658 -0.0000
vn 0.4178 -0.8067 -0.4179
vn -0.0000 -0.8658 -0.5003
vn -0.0000 -0.5003 -0.8658
vn 0.4179 -0.4178 -0.8067
vn -0.0000 0.8658 0.5003
vn 0.4179 0.8067 0.4179
vn -0.0000 0.5003 0.8658
vn 0.4179 0.4178 0.8067
vn 0.5003 -0.0000 0.8658
vn 0.8658 -0.0000 0.5003
vn 0.8067 0.4179 0.4178
vn 0.8067 -0.4179 0.4179
vn 0.4178 -0.4179 0.8067
vn -0.0000 -0.5003 0.8658
vn -0.0000 -0.8658 0.5003
vn 0.4179 -0.8067 0.4178
vn -0.4179 0.8067 -0.4179
vn -0.5003 0.8658 -0.0000
vn -0.4179 0.4178 -0.8067
vn -0.5003 -0.0000 -0.8658
vn -0.8658 -0.0000 -0.5003
vn -0.8067 0.4179 -0.4178
vn -0.8658 0.5003 -0.0000
vn -0.8067 -0.4179 -0.4179
vn -0.8658 -0.5003 -0.0000
vn -0.4178 -0.4179 -0.8067
vn -0.4179 -0.8067 -0.4178
vn -0.5003 -0.8658 -0.0000
vn -0.8658 -0.0000 0.5003
vn -0.8067 0.4179 0.4178
vn -0.5003 -0.0000 0.8658
vn -0.4178 0.4179 0.8067
vn -0.4179 0.8067 0.4178
vn -0.4179 -0.4179 0.8067
vn -0.8067 -0.4179 0.4178
vn -0.4178 -0.8067 0.4179
vt 0.135153 0.510153
vt 0.364847 0.510153
vt 0.364847 0.739848
vt 0.135153 0.739847
vt 0.385153 0.010153
vt 0.614847 0.010153
vt 0.614847 0.239847
vt 0.385153 0.239847
vt 0.385153 0.760153
vt 0.614847 0.760153
vt 0.614847 0.989847
vt 0.385153 0.989847
vt 0.635153 0.510153
vt 0.864847 0.510153
vt 0.864848 0.739848
vt 0.635153 0.739847
vt 0.385153 0.510153
vt 0.614847 0.510153
vt 0.614847 0.739848
vt 0.385153 0.739847
vt 0.614847 0.489847
vt 0.619917 0.489847
vt 0.619703 0.494703
vt 0.614847 0.494917
vt 0.625000 0.489847
vt 0.625000 0.494703
vt 0.630083 0.510153
vt 0.630298 0.500000
vt 0.635153 0.500000
vt 0.619917 0.510153
vt 0.619703 0.505297
vt 0.614847 0.505083
vt 0.619702 0.497326
vt 0.380083 0.510153
vt 0.380297 0.505297
vt 0.385153 0.505083
vt 0.369917 0.510153
vt 0.369703 0.500000
vt 0.364847 0.500000
vt 0.375000 0.489847
vt 0.380083 0.489847
vt 0.380297 0.494702
vt 0.375000 0.494703
vt 0.385153 0.489847
vt 0.385153 0.494917
vt 0.380297 0.497326
vt 0.635153 0.744917
vt 0.630297 0.744703
vt 0.630083 0.739847
vt 0.635153 0.750000
vt 0.630298 0.750000
vt 0.614847 0.755083
vt 0.625000 0.755298
vt 0.625000 0.760153
vt 0.614847 0.744917
vt 0.619703 0.744702
vt 0.619917 0.739847
vt 0.627674 0.744702
vt 0.385153 0.744917
vt 0.380297 0.744703
vt 0.380083 0.739847
vt 0.385153 0.755083
vt 0.375000 0.755297
vt 0.375000 0.760153
vt 0.364847 0.750000
vt 0.364847 0.744917
vt 0.369703 0.744702
vt 0.369703 0.750000
vt 0.369917 0.739847
vt 0.372326 0.744703
vt 0.864847 0.500000
vt 0.869702 0.500000
vt 0.875000 0.510153
vt 0.625000 0.260153
vt 0.619917 0.260153
vt 0.619703 0.255297
vt 0.625000 0.255297
vt 0.614847 0.260153
vt 0.614847 0.255083
vt 0.614847 0.244917
vt 0.619703 0.244703
vt 0.619917 0.239847
vt 0.625000 0.239847
vt 0.625000 0.250000
vt 0.619702 0.252674
vt 0.385153 0.244917
vt 0.380297 0.244703
vt 0.380083 0.239847
vt 0.385153 0.255083
vt 0.380297 0.255297
vt 0.385153 0.260153
vt 0.380083 0.260153
vt 0.375000 0.260153
vt 0.375000 0.255297
vt 0.125000 0.510153
vt 0.130297 0.500000
vt 0.135153 0.500000
vt 0.375000 0.239847
vt 0.375000 0.250000
vt 0.380297 0.252674
vt 0.614847 0.005083
vt 0.619703 0.005297
vt 0.619917 0.010153
vt 0.614847 0.000000
vt 0.619703 0.000000
vt 0.625000 0.989847
vt 0.619703 1.000000
vt 0.614847 1.000000
vt 0.864847 0.750000
vt 0.864847 0.744917
vt 0.875000 0.744703
vt 0.875000 0.750000
vt 0.875000 0.739847
vt 0.625000 0.010153
vt 0.625000 0.005297
vt 0.385153 1.000000
vt 0.380297 1.000000
vt 0.375000 0.989847
vt 0.385153 0.000000
vt 0.385153 0.005083
vt 0.380297 0.005297
vt 0.380297 0.000000
vt 0.380083 0.010153
vt 0.375000 0.010153
vt 0.375000 0.005297
vt 0.135153 0.744917
vt 0.125000 0.744703
vt 0.125000 0.739847
vt 0.135153 0.750000
vt 0.125000 0.750000
s 1
usemtl Material.001
f 63/1/1 14/2/1 39/3/1 87/4/1
f 86/5/2 73/6/2 51/7/2 61/8/2
f 38/9/3 26/10/3 74/11/3 85/12/3
f 2/13/4 49/14/4 75/15/4 25/16/4
f 13/17/5 3/18/5 27/19/5 37/20/5
f 1/21/6 4/22/7 6/23/8 5/24/9
f 4/22/7 8/25/10 9/26/11 6/23/8
f 2/13/4 7/27/12 9/28/11 8/29/10
f 7/27/12 11/30/13 12/31/14 9/28/11
f 3/18/5 10/32/15 12/31/14 11/30/13
f 10/32/15 5/24/9 6/23/8 12/31/14
f 6/23/8 9/26/11 12/33/14
f 13/17/5 16/34/16 18/35/17 17/36/15
f 16/34/16 20/37/18 21/38/19 18/35/17
f 14/2/1 19/39/20 21/38/19 20/37/18
f 19/40/20 23/41/21 24/42/22 21/43/19
f 15/44/6 22/45/9 24/42/22 23/41/21
f 22/45/9 17/36/15 18/35/17 24/42/22
f 18/46/17 21/43/19 24/42/22
f 25/16/4 28/47/23 30/48/24 29/49/12
f 28/47/23 32/50/25 33/51/26 30/48/24
f 26/10/3 31/52/27 33/53/26 32/54/25
f 31/52/27 35/55/28 36/56/29 33/53/26
f 27/19/5 34/57/13 36/56/29 35/55/28
f 34/57/13 29/49/12 30/48/24 36/56/29
f 30/48/24 33/51/26 36/58/29
f 37/20/5 40/59/28 42/60/30 41/61/16
f 40/59/28 44/62/27 45/63/31 42/60/30
f 38/9/3 43/64/32 45/63/31 44/62/27
f 43/65/32 47/66/33 48/67/34 45/68/31
f 39/3/1 46/69/18 48/67/34 47/66/33
f 46/69/18 41/61/16 42/60/30 48/67/34
f 42/70/30 45/68/31 48/67/34
f 49/14/4 52/71/10 54/72/35 53/73/36
f 52/74/10 56/75/7 57/76/37 54/77/35
f 50/78/6 55/79/38 57/76/37 56/75/7
f 55/79/38 59/80/39 60/81/40 57/76/37
f 51/7/2 58/82/41 60/81/40 59/80/39
f 58/82/41 53/83/36 54/84/35 60/81/40
f 54/77/35 57/76/37 60/85/40
f 61/8/2 64/86/39 66/87/42 65/88/43
f 64/86/39 68/89/38 69/90/44 66/87/42
f 62/91/6 67/92/21 69/90/44 68/89/38
f 67/92/21 71/93/20 72/94/45 69/90/44
f 63/1/1 70/95/46 72/96/45 71/97/20
f 70/98/46 65/88/43 66/87/42 72/99/45
f 66/100/42 69/90/44 72/94/45
f 73/6/2 76/101/47 78/102/48 77/103/41
f 76/101/47 80/104/49 81/105/50 78/102/48
f 74/11/3 79/106/25 81/107/50 80/108/49
f 79/109/25 83/110/23 84/111/51 81/112/50
f 75/15/4 82/113/36 84/111/51 83/110/23
f 82/114/36 77/103/41 78/102/48 84/115/51
f 78/102/48 81/105/50 84/115/51
f 85/12/3 88/116/49 90/117/52 89/118/32
f 88/119/49 92/120/47 93/121/53 90/122/52
f 86/5/2 91/123/43 93/121/53 92/120/47
f 91/123/43 95/124/46 96/125/54 93/121/53
f 87/4/1 94/126/33 96/127/54 95/128/46
f 94/126/33 89/129/32 90/130/52 96/127/54
f 90/122/52 93/121/53 96/125/54
f 3/18/5 13/17/5 17/36/15 10/32/15
f 10/32/15 17/36/15 22/45/9 5/24/9
f 5/24/9 22/45/9 15/44/6 1/21/6
f 2/13/4 25/16/4 29/49/12 7/27/12
f 7/27/12 29/49/12 34/57/13 11/30/13
f 11/30/13 34/57/13 27/19/5 3/18/5
f 26/10/3 38/9/3 44/62/27 31/52/27
f 31/52/27 44/62/27 40/59/28 35/55/28
f 35/55/28 40/59/28 37/20/5 27/19/5
f 1/21/6 50/78/6 56/75/7 4/22/7
f 4/22/7 56/75/7 52/74/10 8/25/10
f 8/29/10 52/71/10 49/14/4 2/13/4
f 50/78/6 62/91/6 68/89/38 55/79/38
f 55/79/38 68/89/38 64/86/39 59/80/39
f 59/80/39 64/86/39 61/8/2 51/7/2
f 51/7/2 73/6/2 77/103/41 58/82/41
f 58/82/41 77/103/41 82/114/36 53/83/36
f 53/73/36 82/113/36 75/15/4 49/14/4
f 38/9/3 85/12/3 89/118/32 43/64/32
f 43/65/32 89/129/32 94/126/33 47/66/33
f 47/66/33 94/126/33 87/4/1 39/3/1
f 14/2/1 63/1/1 71/97/20 19/39/20
f 19/40/20 71/93/20 67/92/21 23/41/21
f 23/41/21 67/92/21 62/91/6 15/44/6
f 63/1/1 87/4/1 95/128/46 70/95/46
f 70/98/46 95/124/46 91/123/43 65/88/43
f 65/88/43 91/123/43 86/5/2 61/8/2
f 25/16/4 75/15/4 83/110/23 28/47/23
f 28/47/23 83/110/23 79/109/25 32/50/25
f 32/54/25 79/106/25 74/11/3 26/10/3
f 73/6/2 86/5/2 92/120/47 76/101/47
f 76/101/47 92/120/47 88/119/49 80/104/49
f 80/108/49 88/116/49 85/12/3 74/11/3
f 13/17/5 37/20/5 41/61/16 16/34/16
f 16/34/16 41/61/16 46/69/18 20/37/18
f 20/37/18 46/69/18 39/3/1 14/2/1
f 62/91/6 50/78/6 1/21/6 15/44/6
